<?xml version="1.0" standalone="no"?>
<!DOCTYPE svg PUBLIC "-//W3C//DTD SVG 20010904//EN"
 "http://www.w3.org/TR/2001/REC-SVG-20010904/DTD/svg10.dtd">
<svg version="1.0" xmlns="http://www.w3.org/2000/svg"
 width="800pt" height="800pt" viewBox="0 0 800 800"
 preserveAspectRatio="xMidYMid meet">
<metadata>
Created by potrace 1.11, written by Peter Selinger 2001-2013
</metadata>
<g transform="translate(0,800) scale(0.1,-0.1)"
fill="#000000" stroke="none">
<path d="M2360 7989 c-789 -75 -1500 -505 -1940 -1174 -83 -126 -212 -384
-265 -529 -71 -194 -125 -443 -145 -666 -13 -157 -13 -3097 0 -3245 75 -804
500 -1511 1175 -1955 126 -83 384 -212 529 -265 194 -71 443 -125 666 -145
157 -13 3097 -13 3245 0 804 75 1511 500 1955 1175 83 126 212 384 265 529 71
194 125 443 145 666 13 157 13 3097 0 3245 -75 804 -500 1511 -1175 1955 -126
83 -384 212 -529 265 -194 71 -443 125 -666 145 -138 12 -3133 11 -3260 -1z
m1816 -2293 c48 -24 87 -53 114 -84 58 -65 1406 -2401 1426 -2471 26 -86 16
-203 -24 -284 -41 -83 -129 -166 -209 -199 l-58 -23 -1425 0 -1425 0 -58 23
c-80 33 -168 116 -209 199 -40 81 -50 198 -24 284 20 69 1368 2406 1424 2470
43 48 133 102 198 119 22 5 74 8 118 5 66 -3 91 -9 152 -39z"/>
</g>
</svg>
